<mxfile host="app.diagrams.net" modified="2022-11-29T17:13:44.923Z" agent="5.0 (X11; Linux x86_64) AppleWebKit/537.36 (KHTML, like Gecko) Chrome/107.0.0.0 Safari/537.36 Edg/107.0.1418.56" etag="wUFXewX0EuJBz1Fgxc3z" version="20.6.0" type="github">
  <diagram id="kgpKYQtTHZ0yAKxKKP6v" name="Page-1">
    <mxGraphModel dx="1422" dy="805" grid="0" gridSize="19" guides="1" tooltips="1" connect="1" arrows="1" fold="1" page="1" pageScale="1" pageWidth="1100" pageHeight="1700" background="#FFFFFF" math="0" shadow="0">
      <root>
        <mxCell id="0" />
        <mxCell id="1" parent="0" />
        <mxCell id="M3xpHvlSZPzgq7l44gkS-55" value="" style="shape=table;startSize=0;container=1;collapsible=0;childLayout=tableLayout;fontSize=14;" vertex="1" parent="1">
          <mxGeometry x="133" y="104" width="760" height="40" as="geometry" />
        </mxCell>
        <mxCell id="M3xpHvlSZPzgq7l44gkS-56" value="" style="shape=tableRow;horizontal=0;startSize=0;swimlaneHead=0;swimlaneBody=0;top=0;left=0;bottom=0;right=0;collapsible=0;dropTarget=0;fillColor=none;points=[[0,0.5],[1,0.5]];portConstraint=eastwest;fontSize=14;" vertex="1" parent="M3xpHvlSZPzgq7l44gkS-55">
          <mxGeometry width="760" height="40" as="geometry" />
        </mxCell>
        <mxCell id="M3xpHvlSZPzgq7l44gkS-57" value="first_name" style="shape=partialRectangle;html=1;whiteSpace=wrap;connectable=0;overflow=hidden;fillColor=none;top=0;left=0;bottom=0;right=0;pointerEvents=1;fontSize=17;" vertex="1" parent="M3xpHvlSZPzgq7l44gkS-56">
          <mxGeometry width="114" height="40" as="geometry">
            <mxRectangle width="114" height="40" as="alternateBounds" />
          </mxGeometry>
        </mxCell>
        <mxCell id="M3xpHvlSZPzgq7l44gkS-58" value="last_name" style="shape=partialRectangle;html=1;whiteSpace=wrap;connectable=0;overflow=hidden;fillColor=none;top=0;left=0;bottom=0;right=0;pointerEvents=1;fontSize=17;" vertex="1" parent="M3xpHvlSZPzgq7l44gkS-56">
          <mxGeometry x="114" width="95" height="40" as="geometry">
            <mxRectangle width="95" height="40" as="alternateBounds" />
          </mxGeometry>
        </mxCell>
        <mxCell id="M3xpHvlSZPzgq7l44gkS-59" value="&lt;u&gt;&lt;b&gt;username&lt;/b&gt;&lt;/u&gt;" style="shape=partialRectangle;html=1;whiteSpace=wrap;connectable=0;overflow=hidden;fillColor=none;top=0;left=0;bottom=0;right=0;pointerEvents=1;fontSize=17;" vertex="1" parent="M3xpHvlSZPzgq7l44gkS-56">
          <mxGeometry x="209" width="95" height="40" as="geometry">
            <mxRectangle width="95" height="40" as="alternateBounds" />
          </mxGeometry>
        </mxCell>
        <mxCell id="M3xpHvlSZPzgq7l44gkS-60" value="email" style="shape=partialRectangle;html=1;whiteSpace=wrap;connectable=0;overflow=hidden;fillColor=none;top=0;left=0;bottom=0;right=0;pointerEvents=1;fontSize=17;" vertex="1" parent="M3xpHvlSZPzgq7l44gkS-56">
          <mxGeometry x="304" width="95" height="40" as="geometry">
            <mxRectangle width="95" height="40" as="alternateBounds" />
          </mxGeometry>
        </mxCell>
        <mxCell id="M3xpHvlSZPzgq7l44gkS-61" value="mobile" style="shape=partialRectangle;html=1;whiteSpace=wrap;connectable=0;overflow=hidden;fillColor=none;top=0;left=0;bottom=0;right=0;pointerEvents=1;fontSize=17;" vertex="1" parent="M3xpHvlSZPzgq7l44gkS-56">
          <mxGeometry x="399" width="95" height="40" as="geometry">
            <mxRectangle width="95" height="40" as="alternateBounds" />
          </mxGeometry>
        </mxCell>
        <mxCell id="M3xpHvlSZPzgq7l44gkS-62" value="joined_on" style="shape=partialRectangle;html=1;whiteSpace=wrap;connectable=0;overflow=hidden;fillColor=none;top=0;left=0;bottom=0;right=0;pointerEvents=1;fontSize=17;" vertex="1" parent="M3xpHvlSZPzgq7l44gkS-56">
          <mxGeometry x="494" width="95" height="40" as="geometry">
            <mxRectangle width="95" height="40" as="alternateBounds" />
          </mxGeometry>
        </mxCell>
        <mxCell id="M3xpHvlSZPzgq7l44gkS-63" value="address" style="shape=partialRectangle;html=1;whiteSpace=wrap;connectable=0;overflow=hidden;fillColor=none;top=0;left=0;bottom=0;right=0;pointerEvents=1;fontSize=17;" vertex="1" parent="M3xpHvlSZPzgq7l44gkS-56">
          <mxGeometry x="589" width="95" height="40" as="geometry">
            <mxRectangle width="95" height="40" as="alternateBounds" />
          </mxGeometry>
        </mxCell>
        <mxCell id="M3xpHvlSZPzgq7l44gkS-64" value="type" style="shape=partialRectangle;html=1;whiteSpace=wrap;connectable=0;overflow=hidden;fillColor=none;top=0;left=0;bottom=0;right=0;pointerEvents=1;fontSize=17;" vertex="1" parent="M3xpHvlSZPzgq7l44gkS-56">
          <mxGeometry x="684" width="76" height="40" as="geometry">
            <mxRectangle width="76" height="40" as="alternateBounds" />
          </mxGeometry>
        </mxCell>
        <mxCell id="M3xpHvlSZPzgq7l44gkS-100" value="" style="endArrow=none;html=1;rounded=0;fontSize=17;labelBorderColor=#0000CC;fontColor=#0000CC;strokeColor=#0000FF;" edge="1" parent="1">
          <mxGeometry width="50" height="50" relative="1" as="geometry">
            <mxPoint x="209" y="180" as="sourcePoint" />
            <mxPoint x="855" y="180" as="targetPoint" />
          </mxGeometry>
        </mxCell>
        <mxCell id="M3xpHvlSZPzgq7l44gkS-101" value="" style="endArrow=classic;html=1;rounded=0;fontSize=17;entryX=0.099;entryY=1;entryDx=0;entryDy=0;entryPerimeter=0;labelBorderColor=#0000CC;fontColor=#0000CC;strokeColor=#0000FF;" edge="1" parent="1" target="M3xpHvlSZPzgq7l44gkS-56">
          <mxGeometry width="50" height="50" relative="1" as="geometry">
            <mxPoint x="209" y="180" as="sourcePoint" />
            <mxPoint x="449" y="294" as="targetPoint" />
          </mxGeometry>
        </mxCell>
        <mxCell id="M3xpHvlSZPzgq7l44gkS-102" value="" style="endArrow=classic;html=1;rounded=0;fontSize=17;entryX=0.199;entryY=1.025;entryDx=0;entryDy=0;entryPerimeter=0;labelBorderColor=#0000CC;fontColor=#0000CC;strokeColor=#0000FF;" edge="1" parent="1" target="M3xpHvlSZPzgq7l44gkS-56">
          <mxGeometry width="50" height="50" relative="1" as="geometry">
            <mxPoint x="285" y="180" as="sourcePoint" />
            <mxPoint x="449" y="294" as="targetPoint" />
          </mxGeometry>
        </mxCell>
        <mxCell id="M3xpHvlSZPzgq7l44gkS-105" value="" style="endArrow=classic;html=1;rounded=0;fontSize=17;entryX=0.199;entryY=1.025;entryDx=0;entryDy=0;entryPerimeter=0;labelBorderColor=#0000CC;fontColor=#0000CC;strokeColor=#0000FF;" edge="1" parent="1">
          <mxGeometry width="50" height="50" relative="1" as="geometry">
            <mxPoint x="475.76" y="179" as="sourcePoint" />
            <mxPoint x="475" y="144" as="targetPoint" />
          </mxGeometry>
        </mxCell>
        <mxCell id="M3xpHvlSZPzgq7l44gkS-106" value="" style="endArrow=classic;html=1;rounded=0;fontSize=17;entryX=0.199;entryY=1.025;entryDx=0;entryDy=0;entryPerimeter=0;labelBorderColor=#0000CC;fontColor=#0000CC;strokeColor=#0000FF;" edge="1" parent="1">
          <mxGeometry width="50" height="50" relative="1" as="geometry">
            <mxPoint x="665.76" y="179" as="sourcePoint" />
            <mxPoint x="665" y="144" as="targetPoint" />
          </mxGeometry>
        </mxCell>
        <mxCell id="M3xpHvlSZPzgq7l44gkS-107" value="" style="endArrow=classic;html=1;rounded=0;fontSize=17;entryX=0.199;entryY=1.025;entryDx=0;entryDy=0;entryPerimeter=0;labelBorderColor=#0000CC;fontColor=#0000CC;strokeColor=#0000FF;" edge="1" parent="1">
          <mxGeometry width="50" height="50" relative="1" as="geometry">
            <mxPoint x="570.76" y="179" as="sourcePoint" />
            <mxPoint x="570" y="144" as="targetPoint" />
          </mxGeometry>
        </mxCell>
        <mxCell id="M3xpHvlSZPzgq7l44gkS-108" value="" style="endArrow=classic;html=1;rounded=0;fontSize=17;entryX=0.199;entryY=1.025;entryDx=0;entryDy=0;entryPerimeter=0;labelBorderColor=#0000CC;fontColor=#0000CC;strokeColor=#0000FF;" edge="1" parent="1">
          <mxGeometry width="50" height="50" relative="1" as="geometry">
            <mxPoint x="855.76" y="179" as="sourcePoint" />
            <mxPoint x="855" y="144" as="targetPoint" />
          </mxGeometry>
        </mxCell>
        <mxCell id="M3xpHvlSZPzgq7l44gkS-109" value="" style="endArrow=classic;html=1;rounded=0;fontSize=17;entryX=0.199;entryY=1.025;entryDx=0;entryDy=0;entryPerimeter=0;labelBorderColor=#0000CC;fontColor=#0000CC;strokeColor=#0000FF;" edge="1" parent="1">
          <mxGeometry width="50" height="50" relative="1" as="geometry">
            <mxPoint x="760.76" y="179" as="sourcePoint" />
            <mxPoint x="760" y="144" as="targetPoint" />
          </mxGeometry>
        </mxCell>
        <mxCell id="M3xpHvlSZPzgq7l44gkS-110" value="" style="endArrow=none;html=1;rounded=0;fontSize=17;entryX=0.334;entryY=1.05;entryDx=0;entryDy=0;entryPerimeter=0;labelBorderColor=#0000CC;fontColor=#0000CC;strokeColor=#0000FF;" edge="1" parent="1" target="M3xpHvlSZPzgq7l44gkS-56">
          <mxGeometry width="50" height="50" relative="1" as="geometry">
            <mxPoint x="387" y="180" as="sourcePoint" />
            <mxPoint x="449" y="294" as="targetPoint" />
          </mxGeometry>
        </mxCell>
        <mxCell id="M3xpHvlSZPzgq7l44gkS-121" value="" style="endArrow=none;html=1;rounded=0;fontSize=17;labelBorderColor=#0000CC;fontColor=#0000CC;strokeColor=#0000FF;" edge="1" parent="1">
          <mxGeometry width="50" height="50" relative="1" as="geometry">
            <mxPoint x="190" y="278" as="sourcePoint" />
            <mxPoint x="304" y="278" as="targetPoint" />
          </mxGeometry>
        </mxCell>
        <mxCell id="M3xpHvlSZPzgq7l44gkS-122" value="" style="endArrow=classic;html=1;rounded=0;fontSize=17;entryX=0.099;entryY=1;entryDx=0;entryDy=0;entryPerimeter=0;labelBorderColor=#0000CC;fontColor=#0000CC;strokeColor=#0000FF;" edge="1" parent="1">
          <mxGeometry width="50" height="50" relative="1" as="geometry">
            <mxPoint x="304.76" y="278" as="sourcePoint" />
            <mxPoint x="304" y="242" as="targetPoint" />
          </mxGeometry>
        </mxCell>
        <mxCell id="M3xpHvlSZPzgq7l44gkS-129" value="" style="endArrow=none;html=1;rounded=0;fontSize=17;entryX=0.334;entryY=1.05;entryDx=0;entryDy=0;entryPerimeter=0;labelBorderColor=#0000CC;fontColor=#0000CC;strokeColor=#0000FF;" edge="1" parent="1">
          <mxGeometry width="50" height="50" relative="1" as="geometry">
            <mxPoint x="190" y="278" as="sourcePoint" />
            <mxPoint x="189.99999999999991" y="242" as="targetPoint" />
          </mxGeometry>
        </mxCell>
        <mxCell id="M3xpHvlSZPzgq7l44gkS-130" value="" style="shape=table;startSize=0;container=1;collapsible=0;childLayout=tableLayout;fontSize=17;fontColor=#000000;" vertex="1" parent="1">
          <mxGeometry x="133" y="202" width="247" height="40" as="geometry" />
        </mxCell>
        <mxCell id="M3xpHvlSZPzgq7l44gkS-131" value="" style="shape=tableRow;horizontal=0;startSize=0;swimlaneHead=0;swimlaneBody=0;top=0;left=0;bottom=0;right=0;collapsible=0;dropTarget=0;fillColor=none;points=[[0,0.5],[1,0.5]];portConstraint=eastwest;fontSize=17;fontColor=#000000;" vertex="1" parent="M3xpHvlSZPzgq7l44gkS-130">
          <mxGeometry width="247" height="40" as="geometry" />
        </mxCell>
        <mxCell id="M3xpHvlSZPzgq7l44gkS-132" value="&lt;font&gt;&lt;b&gt;&lt;u&gt;t_id&lt;/u&gt;&lt;/b&gt;&lt;/font&gt;" style="shape=partialRectangle;html=1;whiteSpace=wrap;connectable=0;overflow=hidden;fillColor=none;top=0;left=0;bottom=0;right=0;pointerEvents=1;fontSize=17;fontColor=#000000;" vertex="1" parent="M3xpHvlSZPzgq7l44gkS-131">
          <mxGeometry width="124" height="40" as="geometry">
            <mxRectangle width="124" height="40" as="alternateBounds" />
          </mxGeometry>
        </mxCell>
        <mxCell id="M3xpHvlSZPzgq7l44gkS-133" value="&lt;font&gt;subject&lt;/font&gt;" style="shape=partialRectangle;html=1;whiteSpace=wrap;connectable=0;overflow=hidden;fillColor=none;top=0;left=0;bottom=0;right=0;pointerEvents=1;fontSize=17;fontColor=#000000;" vertex="1" parent="M3xpHvlSZPzgq7l44gkS-131">
          <mxGeometry x="124" width="123" height="40" as="geometry">
            <mxRectangle width="123" height="40" as="alternateBounds" />
          </mxGeometry>
        </mxCell>
        <mxCell id="M3xpHvlSZPzgq7l44gkS-134" value="" style="endArrow=none;html=1;rounded=0;fontSize=17;labelBorderColor=#0000CC;fontColor=#0000CC;strokeColor=#0000FF;" edge="1" parent="1">
          <mxGeometry width="50" height="50" relative="1" as="geometry">
            <mxPoint x="190" y="383" as="sourcePoint" />
            <mxPoint x="304" y="383" as="targetPoint" />
          </mxGeometry>
        </mxCell>
        <mxCell id="M3xpHvlSZPzgq7l44gkS-135" value="" style="endArrow=classic;html=1;rounded=0;fontSize=17;entryX=0.099;entryY=1;entryDx=0;entryDy=0;entryPerimeter=0;labelBorderColor=#0000CC;fontColor=#0000CC;strokeColor=#0000FF;" edge="1" parent="1">
          <mxGeometry width="50" height="50" relative="1" as="geometry">
            <mxPoint x="304.76" y="383" as="sourcePoint" />
            <mxPoint x="304" y="347" as="targetPoint" />
          </mxGeometry>
        </mxCell>
        <mxCell id="M3xpHvlSZPzgq7l44gkS-136" value="" style="endArrow=none;html=1;rounded=0;fontSize=17;entryX=0.334;entryY=1.05;entryDx=0;entryDy=0;entryPerimeter=0;labelBorderColor=#0000CC;fontColor=#0000CC;strokeColor=#0000FF;" edge="1" parent="1">
          <mxGeometry width="50" height="50" relative="1" as="geometry">
            <mxPoint x="190" y="383" as="sourcePoint" />
            <mxPoint x="190" y="347" as="targetPoint" />
          </mxGeometry>
        </mxCell>
        <mxCell id="M3xpHvlSZPzgq7l44gkS-137" value="" style="shape=table;startSize=0;container=1;collapsible=0;childLayout=tableLayout;fontSize=17;fontColor=#000000;" vertex="1" parent="1">
          <mxGeometry x="133" y="307" width="247" height="40" as="geometry" />
        </mxCell>
        <mxCell id="M3xpHvlSZPzgq7l44gkS-138" value="" style="shape=tableRow;horizontal=0;startSize=0;swimlaneHead=0;swimlaneBody=0;top=0;left=0;bottom=0;right=0;collapsible=0;dropTarget=0;fillColor=none;points=[[0,0.5],[1,0.5]];portConstraint=eastwest;fontSize=17;fontColor=#000000;" vertex="1" parent="M3xpHvlSZPzgq7l44gkS-137">
          <mxGeometry width="247" height="40" as="geometry" />
        </mxCell>
        <mxCell id="M3xpHvlSZPzgq7l44gkS-139" value="&lt;font&gt;&lt;b&gt;&lt;u&gt;s_id&lt;/u&gt;&lt;/b&gt;&lt;/font&gt;" style="shape=partialRectangle;html=1;whiteSpace=wrap;connectable=0;overflow=hidden;fillColor=none;top=0;left=0;bottom=0;right=0;pointerEvents=1;fontSize=17;fontColor=#000000;" vertex="1" parent="M3xpHvlSZPzgq7l44gkS-138">
          <mxGeometry width="124" height="40" as="geometry">
            <mxRectangle width="124" height="40" as="alternateBounds" />
          </mxGeometry>
        </mxCell>
        <mxCell id="M3xpHvlSZPzgq7l44gkS-140" value="&lt;font&gt;subject&lt;/font&gt;" style="shape=partialRectangle;html=1;whiteSpace=wrap;connectable=0;overflow=hidden;fillColor=none;top=0;left=0;bottom=0;right=0;pointerEvents=1;fontSize=17;fontColor=#000000;" vertex="1" parent="M3xpHvlSZPzgq7l44gkS-138">
          <mxGeometry x="124" width="123" height="40" as="geometry">
            <mxRectangle width="123" height="40" as="alternateBounds" />
          </mxGeometry>
        </mxCell>
        <mxCell id="M3xpHvlSZPzgq7l44gkS-141" value="" style="endArrow=none;html=1;rounded=0;fontSize=17;labelBorderColor=#0000CC;fontColor=#0000CC;strokeColor=#0000FF;" edge="1" parent="1">
          <mxGeometry width="50" height="50" relative="1" as="geometry">
            <mxPoint x="190" y="486" as="sourcePoint" />
            <mxPoint x="437" y="486" as="targetPoint" />
          </mxGeometry>
        </mxCell>
        <mxCell id="M3xpHvlSZPzgq7l44gkS-142" value="" style="endArrow=classic;html=1;rounded=0;fontSize=17;entryX=0.099;entryY=1;entryDx=0;entryDy=0;entryPerimeter=0;labelBorderColor=#0000CC;fontColor=#0000CC;strokeColor=#0000FF;" edge="1" parent="1">
          <mxGeometry width="50" height="50" relative="1" as="geometry">
            <mxPoint x="304.76" y="486" as="sourcePoint" />
            <mxPoint x="304" y="450" as="targetPoint" />
          </mxGeometry>
        </mxCell>
        <mxCell id="M3xpHvlSZPzgq7l44gkS-143" value="" style="endArrow=none;html=1;rounded=0;fontSize=17;entryX=0.334;entryY=1.05;entryDx=0;entryDy=0;entryPerimeter=0;labelBorderColor=#0000CC;fontColor=#0000CC;strokeColor=#0000FF;" edge="1" parent="1">
          <mxGeometry width="50" height="50" relative="1" as="geometry">
            <mxPoint x="190" y="486" as="sourcePoint" />
            <mxPoint x="190" y="450" as="targetPoint" />
          </mxGeometry>
        </mxCell>
        <mxCell id="M3xpHvlSZPzgq7l44gkS-144" value="" style="shape=table;startSize=0;container=1;collapsible=0;childLayout=tableLayout;fontSize=17;fontColor=#000000;" vertex="1" parent="1">
          <mxGeometry x="133" y="410" width="370" height="40" as="geometry" />
        </mxCell>
        <mxCell id="M3xpHvlSZPzgq7l44gkS-145" value="" style="shape=tableRow;horizontal=0;startSize=0;swimlaneHead=0;swimlaneBody=0;top=0;left=0;bottom=0;right=0;collapsible=0;dropTarget=0;fillColor=none;points=[[0,0.5],[1,0.5]];portConstraint=eastwest;fontSize=17;fontColor=#000000;" vertex="1" parent="M3xpHvlSZPzgq7l44gkS-144">
          <mxGeometry width="370" height="40" as="geometry" />
        </mxCell>
        <mxCell id="M3xpHvlSZPzgq7l44gkS-146" value="&lt;font&gt;&lt;b&gt;&lt;u&gt;team_id&lt;/u&gt;&lt;/b&gt;&lt;/font&gt;" style="shape=partialRectangle;html=1;whiteSpace=wrap;connectable=0;overflow=hidden;fillColor=none;top=0;left=0;bottom=0;right=0;pointerEvents=1;fontSize=17;fontColor=#000000;" vertex="1" parent="M3xpHvlSZPzgq7l44gkS-145">
          <mxGeometry width="124" height="40" as="geometry">
            <mxRectangle width="124" height="40" as="alternateBounds" />
          </mxGeometry>
        </mxCell>
        <mxCell id="M3xpHvlSZPzgq7l44gkS-147" value="&lt;font&gt;team_name&lt;/font&gt;" style="shape=partialRectangle;html=1;whiteSpace=wrap;connectable=0;overflow=hidden;fillColor=none;top=0;left=0;bottom=0;right=0;pointerEvents=1;fontSize=17;fontColor=#000000;" vertex="1" parent="M3xpHvlSZPzgq7l44gkS-145">
          <mxGeometry x="124" width="123" height="40" as="geometry">
            <mxRectangle width="123" height="40" as="alternateBounds" />
          </mxGeometry>
        </mxCell>
        <mxCell id="M3xpHvlSZPzgq7l44gkS-148" value="team_desc" style="shape=partialRectangle;html=1;whiteSpace=wrap;connectable=0;overflow=hidden;fillColor=none;top=0;left=0;bottom=0;right=0;pointerEvents=1;fontSize=17;fontColor=#000000;" vertex="1" parent="M3xpHvlSZPzgq7l44gkS-145">
          <mxGeometry x="247" width="123" height="40" as="geometry">
            <mxRectangle width="123" height="40" as="alternateBounds" />
          </mxGeometry>
        </mxCell>
        <mxCell id="M3xpHvlSZPzgq7l44gkS-149" value="" style="endArrow=classic;html=1;rounded=0;fontSize=17;entryX=0.099;entryY=1;entryDx=0;entryDy=0;entryPerimeter=0;labelBorderColor=#0000CC;fontColor=#0000CC;strokeColor=#0000FF;" edge="1" parent="1">
          <mxGeometry width="50" height="50" relative="1" as="geometry">
            <mxPoint x="437.76" y="486" as="sourcePoint" />
            <mxPoint x="437" y="450" as="targetPoint" />
          </mxGeometry>
        </mxCell>
        <mxCell id="M3xpHvlSZPzgq7l44gkS-150" value="" style="endArrow=none;html=1;rounded=0;fontSize=17;labelBorderColor=#0000CC;fontColor=#0000CC;strokeColor=#0000FF;" edge="1" parent="1">
          <mxGeometry width="50" height="50" relative="1" as="geometry">
            <mxPoint x="190" y="588" as="sourcePoint" />
            <mxPoint x="304" y="588" as="targetPoint" />
          </mxGeometry>
        </mxCell>
        <mxCell id="M3xpHvlSZPzgq7l44gkS-151" value="" style="endArrow=classic;html=1;rounded=0;fontSize=17;entryX=0.099;entryY=1;entryDx=0;entryDy=0;entryPerimeter=0;labelBorderColor=#0000CC;fontColor=#0000CC;strokeColor=#0000FF;" edge="1" parent="1">
          <mxGeometry width="50" height="50" relative="1" as="geometry">
            <mxPoint x="304.76" y="588" as="sourcePoint" />
            <mxPoint x="304" y="552" as="targetPoint" />
          </mxGeometry>
        </mxCell>
        <mxCell id="M3xpHvlSZPzgq7l44gkS-152" value="" style="endArrow=none;html=1;rounded=0;fontSize=17;entryX=0.334;entryY=1.05;entryDx=0;entryDy=0;entryPerimeter=0;labelBorderColor=#0000CC;fontColor=#0000CC;strokeColor=#0000FF;" edge="1" parent="1">
          <mxGeometry width="50" height="50" relative="1" as="geometry">
            <mxPoint x="190" y="588" as="sourcePoint" />
            <mxPoint x="190" y="552" as="targetPoint" />
          </mxGeometry>
        </mxCell>
        <mxCell id="M3xpHvlSZPzgq7l44gkS-153" value="" style="shape=table;startSize=0;container=1;collapsible=0;childLayout=tableLayout;fontSize=17;fontColor=#000000;" vertex="1" parent="1">
          <mxGeometry x="133" y="512" width="247" height="40" as="geometry" />
        </mxCell>
        <mxCell id="M3xpHvlSZPzgq7l44gkS-154" value="" style="shape=tableRow;horizontal=0;startSize=0;swimlaneHead=0;swimlaneBody=0;top=0;left=0;bottom=0;right=0;collapsible=0;dropTarget=0;fillColor=none;points=[[0,0.5],[1,0.5]];portConstraint=eastwest;fontSize=17;fontColor=#000000;" vertex="1" parent="M3xpHvlSZPzgq7l44gkS-153">
          <mxGeometry width="247" height="40" as="geometry" />
        </mxCell>
        <mxCell id="M3xpHvlSZPzgq7l44gkS-155" value="&lt;font&gt;&lt;b&gt;&lt;u&gt;s_id&lt;/u&gt;&lt;/b&gt;&lt;/font&gt;" style="shape=partialRectangle;html=1;whiteSpace=wrap;connectable=0;overflow=hidden;fillColor=none;top=0;left=0;bottom=0;right=0;pointerEvents=1;fontSize=17;fontColor=#000000;" vertex="1" parent="M3xpHvlSZPzgq7l44gkS-154">
          <mxGeometry width="124" height="40" as="geometry">
            <mxRectangle width="124" height="40" as="alternateBounds" />
          </mxGeometry>
        </mxCell>
        <mxCell id="M3xpHvlSZPzgq7l44gkS-156" value="&lt;font&gt;&lt;u&gt;&lt;b&gt;team_id&lt;/b&gt;&lt;/u&gt;&lt;/font&gt;" style="shape=partialRectangle;html=1;whiteSpace=wrap;connectable=0;overflow=hidden;fillColor=none;top=0;left=0;bottom=0;right=0;pointerEvents=1;fontSize=17;fontColor=#000000;" vertex="1" parent="M3xpHvlSZPzgq7l44gkS-154">
          <mxGeometry x="124" width="123" height="40" as="geometry">
            <mxRectangle width="123" height="40" as="alternateBounds" />
          </mxGeometry>
        </mxCell>
        <mxCell id="M3xpHvlSZPzgq7l44gkS-176" value="" style="shape=table;startSize=0;container=1;collapsible=0;childLayout=tableLayout;fontSize=14;" vertex="1" parent="1">
          <mxGeometry x="133" y="607" width="589" height="40" as="geometry" />
        </mxCell>
        <mxCell id="M3xpHvlSZPzgq7l44gkS-177" value="" style="shape=tableRow;horizontal=0;startSize=0;swimlaneHead=0;swimlaneBody=0;top=0;left=0;bottom=0;right=0;collapsible=0;dropTarget=0;fillColor=none;points=[[0,0.5],[1,0.5]];portConstraint=eastwest;fontSize=14;" vertex="1" parent="M3xpHvlSZPzgq7l44gkS-176">
          <mxGeometry width="589" height="40" as="geometry" />
        </mxCell>
        <mxCell id="M3xpHvlSZPzgq7l44gkS-178" value="&lt;b&gt;&lt;u&gt;project_id&lt;/u&gt;&lt;/b&gt;" style="shape=partialRectangle;html=1;whiteSpace=wrap;connectable=0;overflow=hidden;fillColor=none;top=0;left=0;bottom=0;right=0;pointerEvents=1;fontSize=17;" vertex="1" parent="M3xpHvlSZPzgq7l44gkS-177">
          <mxGeometry width="95" height="40" as="geometry">
            <mxRectangle width="95" height="40" as="alternateBounds" />
          </mxGeometry>
        </mxCell>
        <mxCell id="M3xpHvlSZPzgq7l44gkS-179" value="project_name" style="shape=partialRectangle;html=1;whiteSpace=wrap;connectable=0;overflow=hidden;fillColor=none;top=0;left=0;bottom=0;right=0;pointerEvents=1;fontSize=17;" vertex="1" parent="M3xpHvlSZPzgq7l44gkS-177">
          <mxGeometry x="95" width="114" height="40" as="geometry">
            <mxRectangle width="114" height="40" as="alternateBounds" />
          </mxGeometry>
        </mxCell>
        <mxCell id="M3xpHvlSZPzgq7l44gkS-180" value="description" style="shape=partialRectangle;html=1;whiteSpace=wrap;connectable=0;overflow=hidden;fillColor=none;top=0;left=0;bottom=0;right=0;pointerEvents=1;fontSize=17;" vertex="1" parent="M3xpHvlSZPzgq7l44gkS-177">
          <mxGeometry x="209" width="95" height="40" as="geometry">
            <mxRectangle width="95" height="40" as="alternateBounds" />
          </mxGeometry>
        </mxCell>
        <mxCell id="M3xpHvlSZPzgq7l44gkS-181" value="sub_link" style="shape=partialRectangle;html=1;whiteSpace=wrap;connectable=0;overflow=hidden;fillColor=none;top=0;left=0;bottom=0;right=0;pointerEvents=1;fontSize=17;" vertex="1" parent="M3xpHvlSZPzgq7l44gkS-177">
          <mxGeometry x="304" width="95" height="40" as="geometry">
            <mxRectangle width="95" height="40" as="alternateBounds" />
          </mxGeometry>
        </mxCell>
        <mxCell id="M3xpHvlSZPzgq7l44gkS-182" value="status" style="shape=partialRectangle;html=1;whiteSpace=wrap;connectable=0;overflow=hidden;fillColor=none;top=0;left=0;bottom=0;right=0;pointerEvents=1;fontSize=17;" vertex="1" parent="M3xpHvlSZPzgq7l44gkS-177">
          <mxGeometry x="399" width="95" height="40" as="geometry">
            <mxRectangle width="95" height="40" as="alternateBounds" />
          </mxGeometry>
        </mxCell>
        <mxCell id="M3xpHvlSZPzgq7l44gkS-183" value="team_id" style="shape=partialRectangle;html=1;whiteSpace=wrap;connectable=0;overflow=hidden;fillColor=none;top=0;left=0;bottom=0;right=0;pointerEvents=1;fontSize=17;" vertex="1" parent="M3xpHvlSZPzgq7l44gkS-177">
          <mxGeometry x="494" width="95" height="40" as="geometry">
            <mxRectangle width="95" height="40" as="alternateBounds" />
          </mxGeometry>
        </mxCell>
        <mxCell id="M3xpHvlSZPzgq7l44gkS-186" value="" style="endArrow=none;html=1;rounded=0;fontSize=17;labelBorderColor=#0000CC;fontColor=#0000CC;strokeColor=#0000FF;" edge="1" parent="1">
          <mxGeometry width="50" height="50" relative="1" as="geometry">
            <mxPoint x="190" y="683" as="sourcePoint" />
            <mxPoint x="665" y="683" as="targetPoint" />
          </mxGeometry>
        </mxCell>
        <mxCell id="M3xpHvlSZPzgq7l44gkS-189" value="" style="endArrow=classic;html=1;rounded=0;fontSize=17;entryX=0.199;entryY=1.025;entryDx=0;entryDy=0;entryPerimeter=0;labelBorderColor=#0000CC;fontColor=#0000CC;strokeColor=#0000FF;" edge="1" parent="1">
          <mxGeometry width="50" height="50" relative="1" as="geometry">
            <mxPoint x="456.76" y="682" as="sourcePoint" />
            <mxPoint x="456" y="647" as="targetPoint" />
          </mxGeometry>
        </mxCell>
        <mxCell id="M3xpHvlSZPzgq7l44gkS-190" value="" style="endArrow=classic;html=1;rounded=0;fontSize=17;entryX=0.199;entryY=1.025;entryDx=0;entryDy=0;entryPerimeter=0;labelBorderColor=#0000CC;fontColor=#0000CC;strokeColor=#0000FF;" edge="1" parent="1">
          <mxGeometry width="50" height="50" relative="1" as="geometry">
            <mxPoint x="665.7600000000002" y="682" as="sourcePoint" />
            <mxPoint x="665" y="647" as="targetPoint" />
          </mxGeometry>
        </mxCell>
        <mxCell id="M3xpHvlSZPzgq7l44gkS-191" value="" style="endArrow=classic;html=1;rounded=0;fontSize=17;entryX=0.199;entryY=1.025;entryDx=0;entryDy=0;entryPerimeter=0;labelBorderColor=#0000CC;fontColor=#0000CC;strokeColor=#0000FF;" edge="1" parent="1">
          <mxGeometry width="50" height="50" relative="1" as="geometry">
            <mxPoint x="551.76" y="682" as="sourcePoint" />
            <mxPoint x="551" y="647" as="targetPoint" />
          </mxGeometry>
        </mxCell>
        <mxCell id="M3xpHvlSZPzgq7l44gkS-192" value="" style="endArrow=classic;html=1;rounded=0;fontSize=17;entryX=0.199;entryY=1.025;entryDx=0;entryDy=0;entryPerimeter=0;labelBorderColor=#0000CC;fontColor=#0000CC;strokeColor=#0000FF;" edge="1" parent="1">
          <mxGeometry width="50" height="50" relative="1" as="geometry">
            <mxPoint x="380.7600000000002" y="682" as="sourcePoint" />
            <mxPoint x="380" y="647" as="targetPoint" />
          </mxGeometry>
        </mxCell>
        <mxCell id="M3xpHvlSZPzgq7l44gkS-193" value="" style="endArrow=classic;html=1;rounded=0;fontSize=17;entryX=0.199;entryY=1.025;entryDx=0;entryDy=0;entryPerimeter=0;labelBorderColor=#0000CC;fontColor=#0000CC;strokeColor=#0000FF;" edge="1" parent="1">
          <mxGeometry width="50" height="50" relative="1" as="geometry">
            <mxPoint x="285.7600000000002" y="682" as="sourcePoint" />
            <mxPoint x="285" y="647" as="targetPoint" />
          </mxGeometry>
        </mxCell>
        <mxCell id="M3xpHvlSZPzgq7l44gkS-197" value="" style="endArrow=none;html=1;rounded=0;labelBorderColor=#0000CC;strokeColor=#0000FF;fontSize=19;fontColor=#000000;" edge="1" parent="1">
          <mxGeometry width="50" height="50" relative="1" as="geometry">
            <mxPoint x="190" y="683" as="sourcePoint" />
            <mxPoint x="190" y="645" as="targetPoint" />
          </mxGeometry>
        </mxCell>
        <mxCell id="M3xpHvlSZPzgq7l44gkS-198" value="" style="shape=table;startSize=0;container=1;collapsible=0;childLayout=tableLayout;fontSize=14;" vertex="1" parent="1">
          <mxGeometry x="133" y="704" width="437" height="40" as="geometry" />
        </mxCell>
        <mxCell id="M3xpHvlSZPzgq7l44gkS-199" value="" style="shape=tableRow;horizontal=0;startSize=0;swimlaneHead=0;swimlaneBody=0;top=0;left=0;bottom=0;right=0;collapsible=0;dropTarget=0;fillColor=none;points=[[0,0.5],[1,0.5]];portConstraint=eastwest;fontSize=14;" vertex="1" parent="M3xpHvlSZPzgq7l44gkS-198">
          <mxGeometry width="437" height="40" as="geometry" />
        </mxCell>
        <mxCell id="M3xpHvlSZPzgq7l44gkS-200" value="&lt;b&gt;&lt;u&gt;project_id&lt;/u&gt;&lt;/b&gt;" style="shape=partialRectangle;html=1;whiteSpace=wrap;connectable=0;overflow=hidden;fillColor=none;top=0;left=0;bottom=0;right=0;pointerEvents=1;fontSize=17;" vertex="1" parent="M3xpHvlSZPzgq7l44gkS-199">
          <mxGeometry width="95" height="40" as="geometry">
            <mxRectangle width="95" height="40" as="alternateBounds" />
          </mxGeometry>
        </mxCell>
        <mxCell id="M3xpHvlSZPzgq7l44gkS-201" value="grade" style="shape=partialRectangle;html=1;whiteSpace=wrap;connectable=0;overflow=hidden;fillColor=none;top=0;left=0;bottom=0;right=0;pointerEvents=1;fontSize=17;" vertex="1" parent="M3xpHvlSZPzgq7l44gkS-199">
          <mxGeometry x="95" width="114" height="40" as="geometry">
            <mxRectangle width="114" height="40" as="alternateBounds" />
          </mxGeometry>
        </mxCell>
        <mxCell id="M3xpHvlSZPzgq7l44gkS-202" value="remark" style="shape=partialRectangle;html=1;whiteSpace=wrap;connectable=0;overflow=hidden;fillColor=none;top=0;left=0;bottom=0;right=0;pointerEvents=1;fontSize=17;" vertex="1" parent="M3xpHvlSZPzgq7l44gkS-199">
          <mxGeometry x="209" width="95" height="40" as="geometry">
            <mxRectangle width="95" height="40" as="alternateBounds" />
          </mxGeometry>
        </mxCell>
        <mxCell id="M3xpHvlSZPzgq7l44gkS-204" value="gradedBy" style="shape=partialRectangle;html=1;whiteSpace=wrap;connectable=0;overflow=hidden;fillColor=none;top=0;left=0;bottom=0;right=0;pointerEvents=1;fontSize=17;" vertex="1" parent="M3xpHvlSZPzgq7l44gkS-199">
          <mxGeometry x="304" width="133" height="40" as="geometry">
            <mxRectangle width="133" height="40" as="alternateBounds" />
          </mxGeometry>
        </mxCell>
        <mxCell id="M3xpHvlSZPzgq7l44gkS-206" value="" style="endArrow=none;html=1;rounded=0;fontSize=17;labelBorderColor=#0000CC;fontColor=#0000CC;strokeColor=#0000FF;" edge="1" parent="1">
          <mxGeometry width="50" height="50" relative="1" as="geometry">
            <mxPoint x="190" y="780" as="sourcePoint" />
            <mxPoint x="532" y="780" as="targetPoint" />
          </mxGeometry>
        </mxCell>
        <mxCell id="M3xpHvlSZPzgq7l44gkS-207" value="" style="endArrow=classic;html=1;rounded=0;fontSize=17;entryX=0.199;entryY=1.025;entryDx=0;entryDy=0;entryPerimeter=0;labelBorderColor=#0000CC;fontColor=#0000CC;strokeColor=#0000FF;" edge="1" parent="1">
          <mxGeometry width="50" height="50" relative="1" as="geometry">
            <mxPoint x="456.76" y="779" as="sourcePoint" />
            <mxPoint x="456" y="744" as="targetPoint" />
          </mxGeometry>
        </mxCell>
        <mxCell id="M3xpHvlSZPzgq7l44gkS-209" value="" style="endArrow=classic;html=1;rounded=0;fontSize=17;entryX=0.199;entryY=1.025;entryDx=0;entryDy=0;entryPerimeter=0;labelBorderColor=#0000CC;fontColor=#0000CC;strokeColor=#0000FF;" edge="1" parent="1">
          <mxGeometry width="50" height="50" relative="1" as="geometry">
            <mxPoint x="532.76" y="779" as="sourcePoint" />
            <mxPoint x="532" y="744" as="targetPoint" />
          </mxGeometry>
        </mxCell>
        <mxCell id="M3xpHvlSZPzgq7l44gkS-210" value="" style="endArrow=classic;html=1;rounded=0;fontSize=17;entryX=0.199;entryY=1.025;entryDx=0;entryDy=0;entryPerimeter=0;labelBorderColor=#0000CC;fontColor=#0000CC;strokeColor=#0000FF;" edge="1" parent="1">
          <mxGeometry width="50" height="50" relative="1" as="geometry">
            <mxPoint x="380.7600000000002" y="779" as="sourcePoint" />
            <mxPoint x="380" y="744" as="targetPoint" />
          </mxGeometry>
        </mxCell>
        <mxCell id="M3xpHvlSZPzgq7l44gkS-211" value="" style="endArrow=classic;html=1;rounded=0;fontSize=17;entryX=0.199;entryY=1.025;entryDx=0;entryDy=0;entryPerimeter=0;labelBorderColor=#0000CC;fontColor=#0000CC;strokeColor=#0000FF;" edge="1" parent="1">
          <mxGeometry width="50" height="50" relative="1" as="geometry">
            <mxPoint x="285.7600000000002" y="779" as="sourcePoint" />
            <mxPoint x="285" y="744" as="targetPoint" />
          </mxGeometry>
        </mxCell>
        <mxCell id="M3xpHvlSZPzgq7l44gkS-212" value="" style="endArrow=none;html=1;rounded=0;labelBorderColor=#0000CC;strokeColor=#0000FF;fontSize=19;fontColor=#000000;" edge="1" parent="1">
          <mxGeometry width="50" height="50" relative="1" as="geometry">
            <mxPoint x="190" y="780" as="sourcePoint" />
            <mxPoint x="190" y="742" as="targetPoint" />
          </mxGeometry>
        </mxCell>
        <mxCell id="M3xpHvlSZPzgq7l44gkS-214" value="Functional dependency diagram" style="text;html=1;strokeColor=none;fillColor=none;align=center;verticalAlign=middle;whiteSpace=wrap;rounded=0;fontSize=19;fontColor=#000000;" vertex="1" parent="1">
          <mxGeometry x="353" y="804" width="326" height="30" as="geometry" />
        </mxCell>
      </root>
    </mxGraphModel>
  </diagram>
</mxfile>
